<?xml version="1.0" standalone="no"?>
<!DOCTYPE svg PUBLIC "-//W3C//DTD SVG 1.1//EN" "http://www.w3.org/Graphics/SVG/1.1/DTD/svg11.dtd" >
<svg xmlns="http://www.w3.org/2000/svg">
<metadata>
This is a custom SVG webfont generated by Font Squirrel.
Copyright   : 2009 copyright c by Jean Francois Porchez Typofonderie All rights reserved Distributed exclusively by AWFP under licence with Typofonderie Any distribution to a third party is prohibited Names are trademarks in some cases
Designer    : Jean Francois Porchez Typofonderie
Foundry     : Jean Francois Porchez Typofonderie
Foundry URL : httpwwwtypofonderiecom
</metadata>
<defs>
<font id="AWConquerorSlabLight" horiz-adv-x="1024" >
<font-face units-per-em="2048" ascent="1559" descent="-489" />
<missing-glyph horiz-adv-x="512" />
<glyph unicode=" "  horiz-adv-x="512" />
<glyph unicode="&#x09;" horiz-adv-x="512" />
<glyph unicode="&#xa0;" horiz-adv-x="512" />
<glyph unicode="!" horiz-adv-x="512" d="M178 1380h154l-25 -997h-104zM186 0v168h140v-168h-140z" />
<glyph unicode="&#x22;" horiz-adv-x="839" d="M195 1380h122l-16 -501h-90zM520 1380h125l-16 -501h-90z" />
<glyph unicode="#" horiz-adv-x="1105" d="M129 426v96h188l52 334h-240v98h254l66 426h94l-66 -426h234l65 426h94l-65 -426h170v-98h-184l-52 -334h236v-96h-250l-63 -426h-97l66 426h-234l-65 -426h-94l65 426h-174zM412 522h233l51 334h-233z" />
<glyph unicode="$" horiz-adv-x="1040" d="M94 -27v400h129v-142q102 -127 275 -141v565q-80 43 -126 75t-101.5 82t-82 113.5t-26.5 143.5q0 133 82 227.5t254 108.5v207h114v-209q104 -8 185 -64v68h129v-358h-129v147q-70 76 -185 92v-526q84 -47 132.5 -80t107.5 -87t87 -120.5t28 -148.5q0 -150 -96.5 -241 t-258.5 -108v-208h-114v206q-166 10 -275 97v-99h-129zM297 1090q0 -82 51 -142.5t150 -120.5v461q-201 -22 -201 -198zM612 92q106 14 161.5 69.5t55.5 139.5q0 96 -56 161.5t-161 129.5v-500z" />
<glyph unicode="%" horiz-adv-x="1671" d="M102 1034.5q0 155.5 90.5 264t252 108.5t251.5 -108.5t90 -264t-90 -265.5t-251.5 -110t-252 110t-90.5 265.5zM217 1032q0 -113 57.5 -193.5t170 -80.5t170 81t57.5 193q0 115 -57.5 196t-170 81t-170 -81t-57.5 -196zM397 0l762 1380h115l-762 -1380h-115zM885 346 q0 156 90 265.5t252 109.5t252 -109.5t90 -265.5t-90 -264.5t-252 -108.5t-252 108.5t-90 264.5zM999 348q0 -115 57.5 -195.5t170 -80.5t170 80.5t57.5 195.5q0 113 -57.5 194t-170 81t-170 -81t-57.5 -194z" />
<glyph unicode="&#x26;" horiz-adv-x="1650" d="M164 385q0 164 90 258t248 117q-129 23 -202 102.5t-73 200.5q0 160 114 252t294 92q156 0 260 -80v80h129v-379h-129v139q-78 121 -246 121q-137 0 -207.5 -60.5t-70.5 -166.5q0 -119 91 -183.5t249 -64.5h69v-123h-67q-207 0 -306.5 -73.5t-99.5 -227.5 q0 -150 112.5 -226.5t305.5 -76.5q215 0 350 95t135 274q0 63 -20 125l-260 -111l-45 117l649 278l45 -116l-260 -111q29 -72 29 -160q0 -248 -178.5 -376t-454.5 -128q-266 0 -408.5 109.5t-142.5 302.5z" />
<glyph unicode="'" horiz-adv-x="512" d="M195 1380h122l-16 -501h-90z" />
<glyph unicode="(" horiz-adv-x="628" d="M139 690q0 287 93.5 502t242.5 401h127q-334 -422 -334 -903t334 -903h-127q-152 190 -244 402t-92 501z" />
<glyph unicode=")" horiz-adv-x="628" d="M27 -213q334 422 333.5 903t-333.5 903h127q150 -186 242.5 -401t92.5 -502q0 -289 -92 -501t-243 -402h-127z" />
<glyph unicode="*" horiz-adv-x="878" d="M96 1098l31 90l266 -92l-4 288h103l-5 -288l267 90l28 -90l-272 -82l180 -238l-76 -57l-176 242l-172 -240l-82 55l185 238z" />
<glyph unicode="+" d="M41 461v112h414v416h112v-416h416v-112h-416v-414h-112v414h-414z" />
<glyph unicode="," horiz-adv-x="512" d="M82 -313l113 501h131l-142 -501h-102z" />
<glyph unicode="-" horiz-adv-x="512" d="M41 629v121h430v-121h-430z" />
<glyph unicode="." horiz-adv-x="512" d="M170 0v188h156v-188h-156z" />
<glyph unicode="/" horiz-adv-x="688" d="M10 0l551 1380h117l-551 -1380h-117z" />
<glyph unicode="0" horiz-adv-x="1183" d="M102 692.5q0 327.5 126 521t363.5 193.5t363.5 -193.5t126 -521t-127 -523.5t-362.5 -196t-362.5 196t-127 523.5zM246 688q0 -276 84 -439t262 -163q176 0 261 163t85 439q0 279 -85 442.5t-261 163.5q-178 0 -262 -162.5t-84 -443.5z" />
<glyph unicode="1" horiz-adv-x="722" d="M61 1245l437 156v-1278h186v-123h-549v123h225v1100l-260 -93z" />
<glyph unicode="2" horiz-adv-x="1136" d="M123 0v88q416 385 546 557t130 354q0 137 -81 213t-200 76q-162 0 -231 -119v-141h-129v379h129v-80q96 80 243 80q174 0 293 -105.5t119 -297.5q0 -102 -29.5 -192.5t-98.5 -182.5t-124 -153.5t-169.5 -173.5l-172.5 -173h557v227h129v-356h-911z" />
<glyph unicode="3" horiz-adv-x="1134" d="M135 -27v379h129v-168q88 -98 250 -98q160 0 247 75t87 212q0 145 -106.5 221t-307.5 76h-121v123h125q158 0 252 68.5t94 193.5q0 106 -76.5 169.5t-201.5 63.5q-162 0 -232 -119v-141h-129v379h129v-80q96 80 244 80q176 0 293 -91t117 -259q0 -121 -76 -205t-199 -111 q154 -27 246 -120t92 -248q0 -195 -136 -297.5t-343 -102.5q-147 0 -248 62v-62h-129z" />
<glyph unicode="4" horiz-adv-x="1185" d="M82 379v100l694 928h121v-909h227v-119h-227v-256h143v-123h-481v123h205v256h-682zM240 498h524v700z" />
<glyph unicode="5" horiz-adv-x="1077" d="M117 -27v379h129v-168q88 -98 250 -98q154 0 244.5 79t90.5 222q0 166 -103 253t-294 87q-115 0 -231 -31v684h702v-315h-129v182h-446v-409q63 6 137 6q225 0 366.5 -108.5t141.5 -340.5q0 -182 -135 -302t-344 -120q-147 0 -250 62v-62h-129z" />
<glyph unicode="6" horiz-adv-x="1230" d="M164 618q0 788 536 789q131 0 224 -70v70h129v-379h-129v152q-76 115 -236 114q-371 0 -381 -581q139 152 357 151q193 0 308 -115.5t115 -306.5q0 -209 -124.5 -339t-329.5 -130q-129 0 -222.5 52.5t-145.5 144.5t-76.5 202.5t-24.5 245.5zM305 535q0 -195 84 -323 t248 -128q147 0 227 89t80 251q0 150 -78 238t-233 88q-213 0 -328 -175v-40z" />
<glyph unicode="7" horiz-adv-x="1030" d="M92 1004v376h856v-100l-233 -428q-115 -211 -154 -359.5t-39 -345.5v-24h144v-123h-422v123h143v22q0 201 50 364t179 404l179 334h-574v-243h-129z" />
<glyph unicode="8" horiz-adv-x="1224" d="M102 373q0 133 71 229t206 133q-102 33 -164.5 119t-62.5 193q0 166 120.5 263t299 97t299 -97.5t120.5 -262.5q0 -106 -62.5 -192.5t-164.5 -119.5q135 -37 205.5 -133t70.5 -229q0 -182 -132 -291t-336.5 -109t-337 109t-132.5 291zM240 375q0 -137 91 -213t238.5 -76 t237.5 76t90 213q0 143 -85 221t-241 78q-160 0 -245.5 -78t-85.5 -221zM291 1047q0 -117 83 -190t199.5 -73t200.5 73t84 190q0 113 -75.5 180t-209 67t-208 -67t-74.5 -180z" />
<glyph unicode="9" horiz-adv-x="1230" d="M143 938q0 209 125 339t330 130q129 0 222 -52t145.5 -144.5t77 -203t24.5 -245.5q0 -788 -537 -789q-135 0 -223 70v-70h-129v379h129v-153q74 -113 236 -113q371 0 381 582q-139 -152 -357 -152q-193 0 -308.5 116t-115.5 306zM287 956q0 -150 77.5 -237.5t233.5 -87.5 q213 0 328 174v41q0 195 -84 322.5t-248 127.5q-147 0 -227 -89t-80 -251z" />
<glyph unicode=":" horiz-adv-x="512" d="M170 0v188h156v-188h-156zM170 731v189h156v-189h-156z" />
<glyph unicode=";" horiz-adv-x="512" d="M82 -313l113 501h131l-142 -501h-102zM170 731v189h156v-189h-156z" />
<glyph unicode="&#x3c;" d="M20 -205v533h697v-287h-185v102h-327v-163h799v-185h-984zM20 389v553h185v-184h799v-185h-799v-184h-185zM20 1004v430h185v-246h307v205h184v-205h308v-184h-984z" />
<glyph unicode="=" d="M41 256v113h942v-113h-942zM41 666v112h942v-112h-942z" />
<glyph unicode="&#x3e;" d="M20 -205v533h697v-287h-185v102h-327v-163h799v-185h-984zM20 389v553h185v-184h799v-185h-799v-184h-185zM20 1004v430h185v-246h307v205h184v-205h308v-184h-984z" />
<glyph unicode="?" horiz-adv-x="899" d="M57 1049v358h129v-64q88 63 226 64q160 0 272.5 -88t112.5 -256q0 -74 -28 -139.5t-85 -120.5t-106.5 -92t-128.5 -86l-9 -242h-104l-8 297q182 111 253.5 190.5t71.5 186.5q0 111 -70.5 171t-183.5 60q-137 0 -213 -100v-139h-129zM319 0v168h140v-168h-140z" />
<glyph unicode="@" horiz-adv-x="1605" d="M109 698q0 205 76.5 374t238.5 276.5t383 107.5q315 0 506.5 -192.5t191.5 -515.5q0 -221 -88 -335t-213 -114q-68 0 -116 33t-62 86q-100 -133 -285 -133q-127 0 -207.5 69.5t-80.5 184.5q0 131 90 195.5t231 64.5q129 0 246 -43v98q0 94 -59.5 145.5t-165.5 51.5 q-143 0 -230 -107l-76 78q117 137 312 137q152 0 243 -75.5t91 -213.5v-405q0 -72 75.5 -72t125.5 79t50 267q0 291 -158.5 453t-420.5 162q-274 0 -426 -187.5t-152 -470.5q0 -297 148.5 -477t437.5 -180q285 0 447 164l67 -82q-193 -184 -522 -184q-334 0 -516 209.5 t-182 551.5zM567 541q0 -70 53.5 -112t145.5 -42q164 0 254 139v133q-109 45 -225 46q-228 0 -228 -164z" />
<glyph unicode="A" horiz-adv-x="1382" d="M20 0v131h95l516 1270h125l512 -1270h94v-131h-385v131h131l-117 293h-602l-115 -293h144v-131h-398zM438 549h504l-254 641z" />
<glyph unicode="B" horiz-adv-x="1396" d="M102 0v131h144v1118h-144v131h664q158 0 274.5 -92t116.5 -266q0 -102 -58.5 -179t-154.5 -116q127 -25 208 -112t81 -228q0 -193 -135 -290t-342 -97h-654zM391 125h348q348 0 348 268q0 129 -96 196.5t-262 67.5h-338v-532zM391 778h352q123 0 196 61.5t73 174t-72 177 t-195 64.5h-354v-477z" />
<glyph unicode="C" horiz-adv-x="1396" d="M113 688q0 141 37.5 268t112.5 228.5t197 162t275 60.5q188 0 328 -90v90h135v-399h-135v147q-137 125 -324 125q-231 0 -354 -174t-123 -415.5t123 -416t354 -174.5q217 0 365 166v148h135v-441h-135v119q-152 -119 -369 -119q-203 0 -348 104.5t-209.5 262.5t-64.5 348 z" />
<glyph unicode="D" horiz-adv-x="1519" d="M102 0v131h144v1118h-144v131h643q324 0 493 -193.5t169 -494.5q0 -299 -173 -495.5t-489 -196.5h-643zM391 127h344q252 0 387 154.5t135 408.5q0 256 -141 409.5t-381 153.5h-344v-1126z" />
<glyph unicode="E" horiz-adv-x="1282" d="M102 0v131h144v1118h-144v131h965v-379h-135v248h-541v-471h275v146h135v-439h-135v166h-275v-520h582v289h135v-420h-1006z" />
<glyph unicode="F" horiz-adv-x="1251" d="M102 0v131h144v1118h-144v131h1006v-399h-135v268h-582v-528h275v166h135v-463h-135v166h-275v-459h205v-131h-494z" />
<glyph unicode="G" horiz-adv-x="1421" d="M113 688q0 141 37.5 268t112.5 228.5t197 162t275 60.5q188 0 328 -90v90h135v-379h-135v127q-137 125 -324 125q-231 0 -354 -174t-123 -416q0 -279 132 -434.5t411 -155.5q176 0 293 45v385h-410v127h549v-606q-193 -78 -444 -78q-332 0 -506 188.5t-174 526.5z" />
<glyph unicode="H" horiz-adv-x="1595" d="M102 0v131h144v1118h-144v131h433v-131h-144v-467h813v467h-143v131h432v-131h-143v-1118h143v-131h-432v131h143v520h-813v-520h144v-131h-433z" />
<glyph unicode="I" horiz-adv-x="636" d="M102 0v131h144v1118h-144v131h433v-131h-144v-1118h144v-131h-433z" />
<glyph unicode="J" horiz-adv-x="1048" d="M80 -27v502h135v-211q111 -156 272 -155q119 0 175.5 82.5t56.5 218.5v839h-205v131h494v-131h-144v-841q0 -207 -101 -321t-276 -114q-156 0 -272 99v-99h-135z" />
<glyph unicode="K" horiz-adv-x="1400" d="M102 0v131h144v1118h-144v131h433v-131h-144v-1118h144v-131h-433zM449 702v7l534 540h-121v131h428v-131h-114l-545 -540l553 -578h110v-131h-422v131h109z" />
<glyph unicode="L" horiz-adv-x="1241" d="M102 0v131h144v1118h-144v131h473v-131h-184v-1118h592v281h135v-412h-1016z" />
<glyph unicode="M" horiz-adv-x="1734" d="M102 0v131h144v1118h-144v131h271l495 -796l496 796h268v-131h-143v-1118h143v-131h-432v131h143v973l-425 -684h-105l-426 667v-956h143v-131h-428z" />
<glyph unicode="N" horiz-adv-x="1597" d="M102 0v131h144v1118h-144v131h265l843 -1120v989h-204v131h489v-131h-143v-1267h-109l-856 1132v-983h205v-131h-490z" />
<glyph unicode="O" horiz-adv-x="1536" d="M113 692q0 143 42 270.5t121.5 227.5t206.5 158.5t285 58.5t285 -58.5t206.5 -158.5t121.5 -227t42 -271q0 -301 -173 -510t-482 -209t-482 209t-173 510zM262 690q0 -244 134 -417t372 -173q160 0 277.5 84t173 215t55.5 291q0 244 -134 417t-372 173q-160 0 -277.5 -84 t-173 -215t-55.5 -291z" />
<glyph unicode="P" horiz-adv-x="1312" d="M102 0v131h144v1118h-144v131h631q207 0 332 -115.5t125 -310.5q0 -205 -122 -321.5t-337 -116.5h-340v-385h205v-131h-494zM391 643h334q158 0 238.5 79t80.5 228q0 137 -87 221t-230 84h-336v-612z" />
<glyph unicode="Q" horiz-adv-x="1536" d="M113 692q0 143 42 270.5t121.5 227.5t206.5 158.5t285 58.5t285 -58.5t206.5 -158.5t121.5 -227t42 -271q0 -242 -116.5 -431t-329.5 -257l235 -299h142v-131h-211l-305 403q-45 -4 -70 -4q-309 0 -482 209t-173 510zM262 690q0 -244 134 -417t372 -173q160 0 277.5 84 t173 215t55.5 291q0 244 -134 417t-372 173q-160 0 -277.5 -84t-173 -215t-55.5 -291z" />
<glyph unicode="R" horiz-adv-x="1409" d="M102 0v131h144v1118h-144v131h639q184 0 306 -105.5t122 -287.5q0 -164 -91 -264t-232 -123l330 -469h135v-131h-228l-395 580h-297v-449h146v-131h-435zM391 705h330q137 0 220 70.5t83 209.5q0 123 -82 196.5t-207 73.5h-344v-550z" />
<glyph unicode="S" horiz-adv-x="1345" d="M176 -27v420h135v-125q139 -168 369 -168q160 0 245 64.5t85 171.5q0 82 -42 139t-109.5 91t-149.5 61.5t-164 58.5t-149.5 71t-109.5 110.5t-42 168.5q0 168 117.5 269.5t326.5 101.5q170 0 297 -78v78h135v-379h-135v139q-49 49 -129 81t-164 32q-150 0 -223.5 -60.5 t-73.5 -160.5q0 -84 56.5 -144.5t142.5 -91.5l184 -68q98 -38 184.5 -78t142.5 -121t56 -194q0 -184 -136 -286.5t-351 -102.5q-219 0 -363 111v-111h-135z" />
<glyph unicode="T" horiz-adv-x="1290" d="M61 983v397h1168v-397h-135v266h-375v-1118h143v-131h-432v131h143v1118h-376v-266h-136z" />
<glyph unicode="U" horiz-adv-x="1595" d="M102 1249v131h433v-131h-144v-786q0 -174 116 -268.5t290 -94.5q184 0 297.5 94.5t113.5 266.5v788h-143v131h428v-131h-143v-784q0 -227 -155 -359.5t-398 -132.5q-236 0 -393.5 133.5t-157.5 358.5v784h-144z" />
<glyph unicode="V" horiz-adv-x="1382" d="M23 1249v131h391v-131h-140l420 -1048l416 1048h-139v131h395v-131h-98l-516 -1259h-125l-512 1259h-92z" />
<glyph unicode="W" horiz-adv-x="1925" d="M66 1249v131h372v-131h-123l267 -1036l319 1167h129l324 -1163l260 1032h-139v131h391v-131h-99l-342 -1259h-151l-313 1120l-318 -1120h-147l-338 1259h-92z" />
<glyph unicode="X" horiz-adv-x="1396" d="M96 0v131h99l403 565l-395 553h-90v131h409v-131h-141l321 -450l322 450h-135v131h405v-131h-98l-395 -555l401 -563h90v-131h-403v131h135l-328 459l-327 -459h133v-131h-406z" />
<glyph unicode="Y" horiz-adv-x="1314" d="M63 1249v131h404v-131h-135l327 -463l326 463h-131v131h406v-131h-101l-432 -604v-514h143v-131h-432v131h144v514l-428 604h-91z" />
<glyph unicode="Z" horiz-adv-x="1269" d="M143 0v109l777 1140h-601v-248h-135v379h922v-110l-776 -1139h682v289h135v-420h-1004z" />
<glyph unicode="[" horiz-adv-x="628" d="M160 -213v1806h389v-102h-277v-1602h277v-102h-389z" />
<glyph unicode="\" horiz-adv-x="688" d="M10 1380h117l551 -1380h-117z" />
<glyph unicode="]" horiz-adv-x="628" d="M80 -111h276v1602h-276v102h389v-1806h-389v102z" />
<glyph unicode="^" d="M20 -205v533h697v-287h-185v102h-327v-163h799v-185h-984zM20 389v553h185v-184h799v-185h-799v-184h-185zM20 1004v430h185v-246h307v205h184v-205h308v-184h-984z" />
<glyph unicode="_" d="M0 -313h1024v-113h-1024v113z" />
<glyph unicode="`" d="M348 1380h127l201 -362h-109z" />
<glyph unicode="&#x300;" d="M348 1380h127l201 -362h-109z" />
<glyph unicode="&#x2cb;" d="M348 1380h127l201 -362h-109z" />
<glyph unicode="a" horiz-adv-x="1382" d="M20 0v131h95l516 1270h125l512 -1270h94v-131h-385v131h131l-117 293h-602l-115 -293h144v-131h-398zM438 549h504l-254 641z" />
<glyph unicode="b" horiz-adv-x="1396" d="M102 0v131h144v1118h-144v131h664q158 0 274.5 -92t116.5 -266q0 -102 -58.5 -179t-154.5 -116q127 -25 208 -112t81 -228q0 -193 -135 -290t-342 -97h-654zM391 125h348q348 0 348 268q0 129 -96 196.5t-262 67.5h-338v-532zM391 778h352q123 0 196 61.5t73 174t-72 177 t-195 64.5h-354v-477z" />
<glyph unicode="c" horiz-adv-x="1396" d="M113 688q0 141 37.5 268t112.5 228.5t197 162t275 60.5q188 0 328 -90v90h135v-399h-135v147q-137 125 -324 125q-231 0 -354 -174t-123 -415.5t123 -416t354 -174.5q217 0 365 166v148h135v-441h-135v119q-152 -119 -369 -119q-203 0 -348 104.5t-209.5 262.5t-64.5 348 z" />
<glyph unicode="d" horiz-adv-x="1519" d="M102 0v131h144v1118h-144v131h643q324 0 493 -193.5t169 -494.5q0 -299 -173 -495.5t-489 -196.5h-643zM391 127h344q252 0 387 154.5t135 408.5q0 256 -141 409.5t-381 153.5h-344v-1126z" />
<glyph unicode="e" horiz-adv-x="1282" d="M102 0v131h144v1118h-144v131h965v-379h-135v248h-541v-471h275v146h135v-439h-135v166h-275v-520h582v289h135v-420h-1006z" />
<glyph unicode="f" horiz-adv-x="1251" d="M102 0v131h144v1118h-144v131h1006v-399h-135v268h-582v-528h275v166h135v-463h-135v166h-275v-459h205v-131h-494z" />
<glyph unicode="g" horiz-adv-x="1421" d="M113 688q0 141 37.5 268t112.5 228.5t197 162t275 60.5q188 0 328 -90v90h135v-379h-135v127q-137 125 -324 125q-231 0 -354 -174t-123 -416q0 -279 132 -434.5t411 -155.5q176 0 293 45v385h-410v127h549v-606q-193 -78 -444 -78q-332 0 -506 188.5t-174 526.5z" />
<glyph unicode="h" horiz-adv-x="1595" d="M102 0v131h144v1118h-144v131h433v-131h-144v-467h813v467h-143v131h432v-131h-143v-1118h143v-131h-432v131h143v520h-813v-520h144v-131h-433z" />
<glyph unicode="i" horiz-adv-x="636" d="M102 0v131h144v1118h-144v131h433v-131h-144v-1118h144v-131h-433z" />
<glyph unicode="j" horiz-adv-x="1048" d="M80 -27v502h135v-211q111 -156 272 -155q119 0 175.5 82.5t56.5 218.5v839h-205v131h494v-131h-144v-841q0 -207 -101 -321t-276 -114q-156 0 -272 99v-99h-135z" />
<glyph unicode="k" horiz-adv-x="1400" d="M102 0v131h144v1118h-144v131h433v-131h-144v-1118h144v-131h-433zM449 702v7l534 540h-121v131h428v-131h-114l-545 -540l553 -578h110v-131h-422v131h109z" />
<glyph unicode="l" horiz-adv-x="1241" d="M102 0v131h144v1118h-144v131h473v-131h-184v-1118h592v281h135v-412h-1016z" />
<glyph unicode="m" horiz-adv-x="1734" d="M102 0v131h144v1118h-144v131h271l495 -796l496 796h268v-131h-143v-1118h143v-131h-432v131h143v973l-425 -684h-105l-426 667v-956h143v-131h-428z" />
<glyph unicode="n" horiz-adv-x="1597" d="M102 0v131h144v1118h-144v131h265l843 -1120v989h-204v131h489v-131h-143v-1267h-109l-856 1132v-983h205v-131h-490z" />
<glyph unicode="o" horiz-adv-x="1536" d="M113 692q0 143 42 270.5t121.5 227.5t206.5 158.5t285 58.5t285 -58.5t206.5 -158.5t121.5 -227t42 -271q0 -301 -173 -510t-482 -209t-482 209t-173 510zM262 690q0 -244 134 -417t372 -173q160 0 277.5 84t173 215t55.5 291q0 244 -134 417t-372 173q-160 0 -277.5 -84 t-173 -215t-55.5 -291z" />
<glyph unicode="p" horiz-adv-x="1312" d="M102 0v131h144v1118h-144v131h631q207 0 332 -115.5t125 -310.5q0 -205 -122 -321.5t-337 -116.5h-340v-385h205v-131h-494zM391 643h334q158 0 238.5 79t80.5 228q0 137 -87 221t-230 84h-336v-612z" />
<glyph unicode="q" horiz-adv-x="1536" d="M113 692q0 143 42 270.5t121.5 227.5t206.5 158.5t285 58.5t285 -58.5t206.5 -158.5t121.5 -227t42 -271q0 -242 -116.5 -431t-329.5 -257l235 -299h142v-131h-211l-305 403q-45 -4 -70 -4q-309 0 -482 209t-173 510zM262 690q0 -244 134 -417t372 -173q160 0 277.5 84 t173 215t55.5 291q0 244 -134 417t-372 173q-160 0 -277.5 -84t-173 -215t-55.5 -291z" />
<glyph unicode="r" horiz-adv-x="1409" d="M102 0v131h144v1118h-144v131h639q184 0 306 -105.5t122 -287.5q0 -164 -91 -264t-232 -123l330 -469h135v-131h-228l-395 580h-297v-449h146v-131h-435zM391 705h330q137 0 220 70.5t83 209.5q0 123 -82 196.5t-207 73.5h-344v-550z" />
<glyph unicode="s" horiz-adv-x="1345" d="M176 -27v420h135v-125q139 -168 369 -168q160 0 245 64.5t85 171.5q0 82 -42 139t-109.5 91t-149.5 61.5t-164 58.5t-149.5 71t-109.5 110.5t-42 168.5q0 168 117.5 269.5t326.5 101.5q170 0 297 -78v78h135v-379h-135v139q-49 49 -129 81t-164 32q-150 0 -223.5 -60.5 t-73.5 -160.5q0 -84 56.5 -144.5t142.5 -91.5l184 -68q98 -38 184.5 -78t142.5 -121t56 -194q0 -184 -136 -286.5t-351 -102.5q-219 0 -363 111v-111h-135z" />
<glyph unicode="t" horiz-adv-x="1290" d="M61 983v397h1168v-397h-135v266h-375v-1118h143v-131h-432v131h143v1118h-376v-266h-136z" />
<glyph unicode="u" horiz-adv-x="1595" d="M102 1249v131h433v-131h-144v-786q0 -174 116 -268.5t290 -94.5q184 0 297.5 94.5t113.5 266.5v788h-143v131h428v-131h-143v-784q0 -227 -155 -359.5t-398 -132.5q-236 0 -393.5 133.5t-157.5 358.5v784h-144z" />
<glyph unicode="v" horiz-adv-x="1382" d="M23 1249v131h391v-131h-140l420 -1048l416 1048h-139v131h395v-131h-98l-516 -1259h-125l-512 1259h-92z" />
<glyph unicode="w" horiz-adv-x="1925" d="M66 1249v131h372v-131h-123l267 -1036l319 1167h129l324 -1163l260 1032h-139v131h391v-131h-99l-342 -1259h-151l-313 1120l-318 -1120h-147l-338 1259h-92z" />
<glyph unicode="x" horiz-adv-x="1396" d="M96 0v131h99l403 565l-395 553h-90v131h409v-131h-141l321 -450l322 450h-135v131h405v-131h-98l-395 -555l401 -563h90v-131h-403v131h135l-328 459l-327 -459h133v-131h-406z" />
<glyph unicode="y" horiz-adv-x="1314" d="M63 1249v131h404v-131h-135l327 -463l326 463h-131v131h406v-131h-101l-432 -604v-514h143v-131h-432v131h144v514l-428 604h-91z" />
<glyph unicode="z" horiz-adv-x="1269" d="M143 0v109l777 1140h-601v-248h-135v379h922v-110l-776 -1139h682v289h135v-420h-1004z" />
<glyph unicode="{" d="M20 -205v533h697v-287h-185v102h-327v-163h799v-185h-984zM20 389v553h185v-184h799v-185h-799v-184h-185zM20 1004v430h185v-246h307v205h184v-205h308v-184h-984z" />
<glyph unicode="|" horiz-adv-x="512" d="M199 -393v1966h112v-1966h-112z" />
<glyph unicode="}" d="M20 -205v533h697v-287h-185v102h-327v-163h799v-185h-984zM20 389v553h185v-184h799v-185h-799v-184h-185zM20 1004v430h185v-246h307v205h184v-205h308v-184h-984z" />
<glyph unicode="~" d="M20 -205v533h697v-287h-185v102h-327v-163h799v-185h-984zM20 389v553h185v-184h799v-185h-799v-184h-185zM20 1004v430h185v-246h307v205h184v-205h308v-184h-984z" />
<glyph unicode="&#xa1;" horiz-adv-x="512" d="M182 0l25 997h104l25 -997h-154zM188 1212v168h140v-168h-140z" />
<glyph unicode="&#xa2;" d="M20 -205v533h697v-287h-185v102h-327v-163h799v-185h-984zM20 389v553h185v-184h799v-185h-799v-184h-185zM20 1004v430h185v-246h307v205h184v-205h308v-184h-984z" />
<glyph unicode="&#xa3;" horiz-adv-x="1062" d="M123 639v104h172q-96 188 -96 310q0 141 98 247.5t285 106.5q127 0 215 -64v64h129v-358h-129v139q-78 102 -213 102q-115 0 -182.5 -65.5t-67.5 -171.5q0 -23 3 -44.5t10 -47t12.5 -41t19.5 -46.5l19 -40l24 -48q18 -37 22 -43h392v-104h-340q51 -117 51 -201 q0 -31 -4 -57.5t-17 -52.5l-20 -43q-8 -16 -30.5 -44t-31.5 -37l-35 -39q-28 -30 -34 -36h456v227h130v-356h-809v100q139 96 202.5 176t63.5 166q0 70 -66 197h-229z" />
<glyph unicode="&#xa4;" d="M20 -205v533h697v-287h-185v102h-327v-163h799v-185h-984zM20 389v553h185v-184h799v-185h-799v-184h-185zM20 1004v430h185v-246h307v205h184v-205h308v-184h-984z" />
<glyph unicode="&#xa5;" d="M20 -205v533h697v-287h-185v102h-327v-163h799v-185h-984zM20 389v553h185v-184h799v-185h-799v-184h-185zM20 1004v430h185v-246h307v205h184v-205h308v-184h-984z" />
<glyph unicode="&#xa6;" d="M20 -205v533h697v-287h-185v102h-327v-163h799v-185h-984zM20 389v553h185v-184h799v-185h-799v-184h-185zM20 1004v430h185v-246h307v205h184v-205h308v-184h-984z" />
<glyph unicode="&#xa7;" d="M20 -205v533h697v-287h-185v102h-327v-163h799v-185h-984zM20 389v553h185v-184h799v-185h-799v-184h-185zM20 1004v430h185v-246h307v205h184v-205h308v-184h-984z" />
<glyph unicode="&#xa8;" d="M274 1245v162h144v-162h-144zM606 1245v162h144v-162h-144z" />
<glyph unicode="&#x308;" d="M274 1245v162h144v-162h-144zM606 1245v162h144v-162h-144z" />
<glyph unicode="&#xa9;" d="M20 -205v533h697v-287h-185v102h-327v-163h799v-185h-984zM20 389v553h185v-184h799v-185h-799v-184h-185zM20 1004v430h185v-246h307v205h184v-205h308v-184h-984z" />
<glyph unicode="&#xaa;" d="M20 -205v533h697v-287h-185v102h-327v-163h799v-185h-984zM20 389v553h185v-184h799v-185h-799v-184h-185zM20 1004v430h185v-246h307v205h184v-205h308v-184h-984z" />
<glyph unicode="&#xab;" horiz-adv-x="839" d="M57 690l281 338h117l-248 -338l248 -338h-117zM385 690l281 338h116l-247 -338l247 -338h-116z" />
<glyph unicode="&#xac;" d="M20 -205v533h697v-287h-185v102h-327v-163h799v-185h-984zM20 389v553h185v-184h799v-185h-799v-184h-185zM20 1004v430h185v-246h307v205h184v-205h308v-184h-984z" />
<glyph unicode="&#xad;" horiz-adv-x="512" d="M41 629v121h430v-121h-430z" />
<glyph unicode="&#xae;" d="M20 -205v533h697v-287h-185v102h-327v-163h799v-185h-984zM20 389v553h185v-184h799v-185h-799v-184h-185zM20 1004v430h185v-246h307v205h184v-205h308v-184h-984z" />
<glyph unicode="&#xaf;" d="M254 1227v104h516v-104h-516z" />
<glyph unicode="&#x304;" d="M254 1227v104h516v-104h-516z" />
<glyph unicode="&#x2c9;" d="M254 1227v104h516v-104h-516z" />
<glyph unicode="&#xb0;" d="M20 -205v533h697v-287h-185v102h-327v-163h799v-185h-984zM20 389v553h185v-184h799v-185h-799v-184h-185zM20 1004v430h185v-246h307v205h184v-205h308v-184h-984z" />
<glyph unicode="&#xb1;" d="M20 -205v533h697v-287h-185v102h-327v-163h799v-185h-984zM20 389v553h185v-184h799v-185h-799v-184h-185zM20 1004v430h185v-246h307v205h184v-205h308v-184h-984z" />
<glyph unicode="&#xb2;" d="M20 -205v533h697v-287h-185v102h-327v-163h799v-185h-984zM20 389v553h185v-184h799v-185h-799v-184h-185zM20 1004v430h185v-246h307v205h184v-205h308v-184h-984z" />
<glyph unicode="&#xb3;" d="M20 -205v533h697v-287h-185v102h-327v-163h799v-185h-984zM20 389v553h185v-184h799v-185h-799v-184h-185zM20 1004v430h185v-246h307v205h184v-205h308v-184h-984z" />
<glyph unicode="&#xb4;" d="M348 1018l201 362h127l-219 -362h-109z" />
<glyph unicode="&#x301;" d="M348 1018l201 362h127l-219 -362h-109z" />
<glyph unicode="&#x2ca;" d="M348 1018l201 362h127l-219 -362h-109z" />
<glyph unicode="&#xb5;" d="M20 -205v533h697v-287h-185v102h-327v-163h799v-185h-984zM20 389v553h185v-184h799v-185h-799v-184h-185zM20 1004v430h185v-246h307v205h184v-205h308v-184h-984z" />
<glyph unicode="&#xb6;" horiz-adv-x="1206" d="M113 913q0 209 138 338t392 129h481v-123h-184v-1294q0 -186 -89 -287.5t-259 -101.5q-109 0 -213 61v-61h-129v379h129v-168q76 -90 223 -90q98 0 153.5 67.5t55.5 202.5v494q-98 -25 -201 -25q-213 0 -355 132t-142 347z" />
<glyph unicode="&#xb7;" horiz-adv-x="512" d="M170 598v188h156v-188h-156z" />
<glyph unicode="&#x2219;" horiz-adv-x="512" d="M170 598v188h156v-188h-156z" />
<glyph unicode="&#xb8;" d="M319 -303l35 92q57 -33 113 -33q61 0 99 36t38 112q0 53 -16 119h98q18 -63 19 -127q0 -111 -63.5 -174.5t-172.5 -63.5q-72 0 -150 39z" />
<glyph unicode="&#x327;" d="M319 -303l35 92q57 -33 113 -33q61 0 99 36t38 112q0 53 -16 119h98q18 -63 19 -127q0 -111 -63.5 -174.5t-172.5 -63.5q-72 0 -150 39z" />
<glyph unicode="&#xb9;" d="M20 -205v533h697v-287h-185v102h-327v-163h799v-185h-984zM20 389v553h185v-184h799v-185h-799v-184h-185zM20 1004v430h185v-246h307v205h184v-205h308v-184h-984z" />
<glyph unicode="&#xba;" d="M20 -205v533h697v-287h-185v102h-327v-163h799v-185h-984zM20 389v553h185v-184h799v-185h-799v-184h-185zM20 1004v430h185v-246h307v205h184v-205h308v-184h-984z" />
<glyph unicode="&#xbb;" horiz-adv-x="839" d="M57 352l248 338l-248 338h117l281 -338l-281 -338h-117zM385 352l248 338l-248 338h117l280 -338l-280 -338h-117z" />
<glyph unicode="&#xbc;" d="M20 -205v533h697v-287h-185v102h-327v-163h799v-185h-984zM20 389v553h185v-184h799v-185h-799v-184h-185zM20 1004v430h185v-246h307v205h184v-205h308v-184h-984z" />
<glyph unicode="&#xbd;" d="M20 -205v533h697v-287h-185v102h-327v-163h799v-185h-984zM20 389v553h185v-184h799v-185h-799v-184h-185zM20 1004v430h185v-246h307v205h184v-205h308v-184h-984z" />
<glyph unicode="&#xbe;" d="M20 -205v533h697v-287h-185v102h-327v-163h799v-185h-984zM20 389v553h185v-184h799v-185h-799v-184h-185zM20 1004v430h185v-246h307v205h184v-205h308v-184h-984z" />
<glyph unicode="&#xbf;" horiz-adv-x="899" d="M41 317q0 74 27.5 139.5t85 121t106.5 92.5t129 86l8 241h105l8 -297q-182 -111 -254 -190.5t-72 -185.5q0 -111 71 -171.5t183 -60.5q137 0 213 101v139h129v-359h-129v64q-88 -63 -225 -64q-160 0 -272.5 88t-112.5 256zM379 1212v168h139v-168h-139z" />
<glyph unicode="&#xc0;" horiz-adv-x="1382" d="M20 0v131h95l516 1270h125l512 -1270h94v-131h-385v131h131l-117 293h-602l-115 -293h144v-131h-398zM420 1679h141l191 -231h-123zM438 549h504l-254 641z" />
<glyph unicode="&#xc1;" horiz-adv-x="1382" d="M20 0v131h95l516 1270h125l512 -1270h94v-131h-385v131h131l-117 293h-602l-115 -293h144v-131h-398zM438 549h504l-254 641zM635 1448l190 231h142l-209 -231h-123z" />
<glyph unicode="&#xc2;" horiz-adv-x="1382" d="M20 0v131h95l516 1270h125l512 -1270h94v-131h-385v131h131l-117 293h-602l-115 -293h144v-131h-398zM438 549h504l-254 641zM444 1448l191 231h102l191 -231h-123l-119 131l-119 -131h-123z" />
<glyph unicode="&#xc3;" horiz-adv-x="1382" d="M20 0v131h95l516 1270h125l512 -1270h94v-131h-385v131h131l-117 293h-602l-115 -293h144v-131h-398zM420 1448q0 96 25.5 147.5t101.5 51.5q43 0 140 -30t134 -30q55 0 56 92h79q0 -96 -25.5 -147t-101.5 -51q-43 0 -140 29.5t-134 29.5q-55 0 -55 -92h-80zM438 549h504 l-254 641z" />
<glyph unicode="&#xc4;" horiz-adv-x="1382" d="M20 0v131h95l516 1270h125l512 -1270h94v-131h-385v131h131l-117 293h-602l-115 -293h144v-131h-398zM438 549h504l-254 641zM449 1518v161h143v-161h-143zM780 1518v161h144v-161h-144z" />
<glyph unicode="&#xc5;" horiz-adv-x="1382" d="M20 0v131h95l516 1270h125l512 -1270h94v-131h-385v131h131l-117 293h-602l-115 -293h144v-131h-398zM438 549h504l-254 641zM520 1606q0 70 45 113.5t123 43.5t123 -45t45 -112q0 -70 -45 -114t-123 -44t-123 45t-45 113zM604 1606q0 -92 84 -93q86 0 86 93q0 94 -86 94 q-84 0 -84 -94z" />
<glyph unicode="&#xc6;" horiz-adv-x="1990" d="M45 0v131h94l684 1118h-235v131h1188v-379h-136v248h-499v-528h233v166h135v-418h-135v125h-233v-463h540v289h136v-420h-965v131h143v463h-409l-275 -463h131v-131h-397zM662 719h333v530h-18z" />
<glyph unicode="&#xc7;" horiz-adv-x="1396" d="M113 688q0 141 37.5 268t112.5 228.5t197 162t275 60.5q188 0 328 -90v90h135v-399h-135v147q-137 125 -324 125q-231 0 -354 -174t-123 -415.5t123 -416t354 -174.5q217 0 365 166v148h135v-441h-135v119q-121 -96 -297 -115q8 -33 8 -81q0 -111 -63.5 -174.5 t-171.5 -63.5q-72 0 -150 39l35 92q57 -33 113 -33q61 0 99 36t38 112q0 35 -6 71q-195 6 -334 112t-200.5 260.5t-61.5 340.5z" />
<glyph unicode="&#xc8;" horiz-adv-x="1282" d="M102 0v131h144v1118h-144v131h965v-379h-135v248h-541v-471h275v146h135v-439h-135v166h-275v-520h582v289h135v-420h-1006zM406 1679h141l190 -231h-123z" />
<glyph unicode="&#xc9;" horiz-adv-x="1282" d="M102 0v131h144v1118h-144v131h965v-379h-135v248h-541v-471h275v146h135v-439h-135v166h-275v-520h582v289h135v-420h-1006zM584 1448l190 231h141l-208 -231h-123z" />
<glyph unicode="&#xca;" horiz-adv-x="1282" d="M102 0v131h144v1118h-144v131h965v-379h-135v248h-541v-471h275v146h135v-439h-135v166h-275v-520h582v289h135v-420h-1006zM428 1448l190 231h103l190 -231h-123l-118 131l-119 -131h-123z" />
<glyph unicode="&#xcb;" horiz-adv-x="1282" d="M102 0v131h144v1118h-144v131h965v-379h-135v248h-541v-471h275v146h135v-439h-135v166h-275v-520h582v289h135v-420h-1006zM438 1518v161h144v-161h-144zM770 1518v161h143v-161h-143z" />
<glyph unicode="&#xcc;" horiz-adv-x="636" d="M43 1679h141l191 -231h-123zM102 0v131h144v1118h-144v131h433v-131h-144v-1118h144v-131h-433z" />
<glyph unicode="&#xcd;" horiz-adv-x="636" d="M102 0v131h144v1118h-144v131h433v-131h-144v-1118h144v-131h-433zM256 1448l190 231h142l-209 -231h-123z" />
<glyph unicode="&#xce;" horiz-adv-x="636" d="M76 1448l190 231h103l190 -231h-123l-119 131l-118 -131h-123zM102 0v131h144v1118h-144v131h433v-131h-144v-1118h144v-131h-433z" />
<glyph unicode="&#xcf;" horiz-adv-x="636" d="M80 1518v161h143v-161h-143zM102 0v131h144v1118h-144v131h433v-131h-144v-1118h144v-131h-433zM412 1518v161h143v-161h-143z" />
<glyph unicode="&#xd0;" horiz-adv-x="1519" d="M20 655v119h226v475h-144v131h643q324 0 493 -193.5t169 -494.5q0 -299 -173 -495.5t-489 -196.5h-643v131h144v524h-226zM391 127h344q252 0 387 154.5t135 408.5q0 256 -141 409.5t-381 153.5h-344v-479h387v-119h-387v-528z" />
<glyph unicode="&#xd1;" horiz-adv-x="1597" d="M102 0v131h144v1118h-144v131h265l843 -1120v989h-204v131h489v-131h-143v-1267h-109l-856 1132v-983h205v-131h-490zM539 1448q0 96 25.5 147.5t101.5 51.5q43 0 140 -30t134 -30q55 0 55 92h80q0 -96 -25.5 -147t-101.5 -51q-43 0 -140 29.5t-134 29.5q-55 0 -56 -92 h-79z" />
<glyph unicode="&#xd2;" horiz-adv-x="1536" d="M113 692q0 143 42 270.5t121.5 227.5t206.5 158.5t285 58.5t285 -58.5t206.5 -158.5t121.5 -227t42 -271q0 -301 -173 -510t-482 -209t-482 209t-173 510zM262 690q0 -244 134 -417t372 -173q160 0 277.5 84t173 215t55.5 291q0 244 -134 417t-372 173q-160 0 -277.5 -84 t-173 -215t-55.5 -291zM487 1679h142l190 -231h-123z" />
<glyph unicode="&#xd3;" horiz-adv-x="1536" d="M113 692q0 143 42 270.5t121.5 227.5t206.5 158.5t285 58.5t285 -58.5t206.5 -158.5t121.5 -227t42 -271q0 -301 -173 -510t-482 -209t-482 209t-173 510zM262 690q0 -244 134 -417t372 -173q160 0 277.5 84t173 215t55.5 291q0 244 -134 417t-372 173q-160 0 -277.5 -84 t-173 -215t-55.5 -291zM698 1448l191 231h141l-209 -231h-123z" />
<glyph unicode="&#xd4;" horiz-adv-x="1536" d="M113 692q0 143 42 270.5t121.5 227.5t206.5 158.5t285 58.5t285 -58.5t206.5 -158.5t121.5 -227t42 -271q0 -301 -173 -510t-482 -209t-482 209t-173 510zM262 690q0 -244 134 -417t372 -173q160 0 277.5 84t173 215t55.5 291q0 244 -134 417t-372 173q-160 0 -277.5 -84 t-173 -215t-55.5 -291zM520 1448l191 231h102l191 -231h-123l-119 131l-119 -131h-123z" />
<glyph unicode="&#xd5;" horiz-adv-x="1536" d="M113 692q0 143 42 270.5t121.5 227.5t206.5 158.5t285 58.5t285 -58.5t206.5 -158.5t121.5 -227t42 -271q0 -301 -173 -510t-482 -209t-482 209t-173 510zM262 690q0 -244 134 -417t372 -173q160 0 277.5 84t173 215t55.5 291q0 244 -134 417t-372 173q-160 0 -277.5 -84 t-173 -215t-55.5 -291zM504 1448q0 96 25.5 147.5t101.5 51.5q43 0 140 -30t134 -30q55 0 56 92h79q0 -96 -25.5 -147t-101.5 -51q-43 0 -140 29.5t-134 29.5q-55 0 -55 -92h-80z" />
<glyph unicode="&#xd6;" horiz-adv-x="1536" d="M113 692q0 143 42 270.5t121.5 227.5t206.5 158.5t285 58.5t285 -58.5t206.5 -158.5t121.5 -227t42 -271q0 -301 -173 -510t-482 -209t-482 209t-173 510zM262 690q0 -244 134 -417t372 -173q160 0 277.5 84t173 215t55.5 291q0 244 -134 417t-372 173q-160 0 -277.5 -84 t-173 -215t-55.5 -291zM528 1518v161h144v-161h-144zM860 1518v161h144v-161h-144z" />
<glyph unicode="&#xd7;" d="M119 203l313 313l-313 315l78 80l315 -315l315 315l78 -80l-313 -315l313 -313l-80 -78l-313 311l-313 -311z" />
<glyph unicode="&#xd8;" horiz-adv-x="1536" d="M113 -115l196 271q-197 203 -196 536q0 143 42 270.5t121.5 227.5t206.5 158.5t285 58.5q219 0 375 -111l145 199h135l-198 -270q199 -203 198 -533q0 -301 -173 -510t-482 -209q-219 0 -375 111l-145 -199h-135zM262 690q0 -250 133 -418l666 912q-123 96 -293 96 q-160 0 -277.5 -84t-173 -215t-55.5 -291zM473 195q123 -94 295 -95q160 0 277.5 84t173 215t55.5 291q0 252 -135 416z" />
<glyph unicode="&#xd9;" horiz-adv-x="1595" d="M102 1249v131h433v-131h-144v-786q0 -174 116 -268.5t290 -94.5q184 0 297.5 94.5t113.5 266.5v788h-143v131h428v-131h-143v-784q0 -227 -155 -359.5t-398 -132.5q-236 0 -393.5 133.5t-157.5 358.5v784h-144zM551 1679h141l191 -231h-123z" />
<glyph unicode="&#xda;" horiz-adv-x="1595" d="M102 1249v131h433v-131h-144v-786q0 -174 116 -268.5t290 -94.5q184 0 297.5 94.5t113.5 266.5v788h-143v131h428v-131h-143v-784q0 -227 -155 -359.5t-398 -132.5q-236 0 -393.5 133.5t-157.5 358.5v784h-144zM715 1448l190 231h142l-209 -231h-123z" />
<glyph unicode="&#xdb;" horiz-adv-x="1595" d="M102 1249v131h433v-131h-144v-786q0 -174 116 -268.5t290 -94.5q184 0 297.5 94.5t113.5 266.5v788h-143v131h428v-131h-143v-784q0 -227 -155 -359.5t-398 -132.5q-236 0 -393.5 133.5t-157.5 358.5v784h-144zM549 1448l190 231h103l190 -231h-123l-118 131l-119 -131 h-123z" />
<glyph unicode="&#xdc;" horiz-adv-x="1595" d="M102 1249v131h433v-131h-144v-786q0 -174 116 -268.5t290 -94.5q184 0 297.5 94.5t113.5 266.5v788h-143v131h428v-131h-143v-784q0 -227 -155 -359.5t-398 -132.5q-236 0 -393.5 133.5t-157.5 358.5v784h-144zM549 1518v161h143v-161h-143zM881 1518v161h143v-161h-143z " />
<glyph unicode="&#xdd;" horiz-adv-x="1314" d="M63 1249v131h404v-131h-135l327 -463l326 463h-131v131h406v-131h-101l-432 -604v-514h143v-131h-432v131h144v514l-428 604h-91zM379 1679h141l191 -231h-123z" />
<glyph unicode="&#xde;" horiz-adv-x="1312" d="M102 0v131h144v1118h-144v131h289v-143h342q207 0 332 -115.5t125 -310.5q0 -205 -122 -321.5t-337 -116.5h-340v-242h205v-131h-494zM391 500h334q158 0 238.5 78.5t80.5 228.5q0 137 -87 221t-230 84h-336v-612z" />
<glyph unicode="&#xdf;" horiz-adv-x="2691" d="M176 -27v420h135v-125q139 -168 369 -168q160 0 245 64.5t85 171.5q0 82 -42 139t-109.5 91t-149.5 61.5t-164 58.5t-149.5 71t-109.5 110.5t-42 168.5q0 168 117.5 269.5t326.5 101.5q170 0 297 -78v78h135v-379h-135v139q-49 49 -129 81t-164 32q-150 0 -223.5 -60.5 t-73.5 -160.5q0 -84 56.5 -144.5t142.5 -91.5l184 -68q98 -38 184.5 -78t142.5 -121t56 -194q0 -184 -136 -286.5t-351 -102.5q-219 0 -363 111v-111h-135zM1522 -27v420h135v-125q139 -168 368 -168q160 0 245 64.5t85 171.5q0 82 -42 139t-109.5 91t-149.5 61.5t-164 58.5 t-149.5 71t-109.5 110.5t-42 168.5q0 168 118 269.5t327 101.5q170 0 297 -78v78h135v-379h-135v139q-49 49 -129 81t-164 32q-150 0 -223.5 -60.5t-73.5 -160.5q0 -84 56 -144.5t142 -91.5l185 -68q98 -38 184 -78t142.5 -121t56.5 -194q0 -184 -136.5 -286.5 t-351.5 -102.5q-219 0 -362 111v-111h-135z" />
<glyph unicode="&#xe0;" horiz-adv-x="1382" d="M20 0v131h95l516 1270h125l512 -1270h94v-131h-385v131h131l-117 293h-602l-115 -293h144v-131h-398zM420 1679h141l191 -231h-123zM438 549h504l-254 641z" />
<glyph unicode="&#xe1;" horiz-adv-x="1382" d="M20 0v131h95l516 1270h125l512 -1270h94v-131h-385v131h131l-117 293h-602l-115 -293h144v-131h-398zM438 549h504l-254 641zM635 1448l190 231h142l-209 -231h-123z" />
<glyph unicode="&#xe2;" horiz-adv-x="1382" d="M20 0v131h95l516 1270h125l512 -1270h94v-131h-385v131h131l-117 293h-602l-115 -293h144v-131h-398zM438 549h504l-254 641zM444 1448l191 231h102l191 -231h-123l-119 131l-119 -131h-123z" />
<glyph unicode="&#xe3;" horiz-adv-x="1382" d="M20 0v131h95l516 1270h125l512 -1270h94v-131h-385v131h131l-117 293h-602l-115 -293h144v-131h-398zM420 1448q0 96 25.5 147.5t101.5 51.5q43 0 140 -30t134 -30q55 0 56 92h79q0 -96 -25.5 -147t-101.5 -51q-43 0 -140 29.5t-134 29.5q-55 0 -55 -92h-80zM438 549h504 l-254 641z" />
<glyph unicode="&#xe4;" horiz-adv-x="1382" d="M20 0v131h95l516 1270h125l512 -1270h94v-131h-385v131h131l-117 293h-602l-115 -293h144v-131h-398zM438 549h504l-254 641zM449 1518v161h143v-161h-143zM780 1518v161h144v-161h-144z" />
<glyph unicode="&#xe5;" horiz-adv-x="1382" d="M20 0v131h95l516 1270h125l512 -1270h94v-131h-385v131h131l-117 293h-602l-115 -293h144v-131h-398zM438 549h504l-254 641zM520 1606q0 70 45 113.5t123 43.5t123 -45t45 -112q0 -70 -45 -114t-123 -44t-123 45t-45 113zM604 1606q0 -92 84 -93q86 0 86 93q0 94 -86 94 q-84 0 -84 -94z" />
<glyph unicode="&#xe6;" horiz-adv-x="1990" d="M45 0v131h94l684 1118h-235v131h1188v-379h-136v248h-499v-528h233v166h135v-418h-135v125h-233v-463h540v289h136v-420h-965v131h143v463h-409l-275 -463h131v-131h-397zM662 719h333v530h-18z" />
<glyph unicode="&#xe7;" horiz-adv-x="1396" d="M113 688q0 141 37.5 268t112.5 228.5t197 162t275 60.5q188 0 328 -90v90h135v-399h-135v147q-137 125 -324 125q-231 0 -354 -174t-123 -415.5t123 -416t354 -174.5q217 0 365 166v148h135v-441h-135v119q-121 -96 -297 -115q8 -33 8 -81q0 -111 -63.5 -174.5 t-171.5 -63.5q-72 0 -150 39l35 92q57 -33 113 -33q61 0 99 36t38 112q0 35 -6 71q-195 6 -334 112t-200.5 260.5t-61.5 340.5z" />
<glyph unicode="&#xe8;" horiz-adv-x="1282" d="M102 0v131h144v1118h-144v131h965v-379h-135v248h-541v-471h275v146h135v-439h-135v166h-275v-520h582v289h135v-420h-1006zM406 1679h141l190 -231h-123z" />
<glyph unicode="&#xe9;" horiz-adv-x="1282" d="M102 0v131h144v1118h-144v131h965v-379h-135v248h-541v-471h275v146h135v-439h-135v166h-275v-520h582v289h135v-420h-1006zM584 1448l190 231h141l-208 -231h-123z" />
<glyph unicode="&#xea;" horiz-adv-x="1282" d="M102 0v131h144v1118h-144v131h965v-379h-135v248h-541v-471h275v146h135v-439h-135v166h-275v-520h582v289h135v-420h-1006zM428 1448l190 231h103l190 -231h-123l-118 131l-119 -131h-123z" />
<glyph unicode="&#xeb;" horiz-adv-x="1282" d="M102 0v131h144v1118h-144v131h965v-379h-135v248h-541v-471h275v146h135v-439h-135v166h-275v-520h582v289h135v-420h-1006zM438 1518v161h144v-161h-144zM770 1518v161h143v-161h-143z" />
<glyph unicode="&#xec;" horiz-adv-x="636" d="M43 1679h141l191 -231h-123zM102 0v131h144v1118h-144v131h433v-131h-144v-1118h144v-131h-433z" />
<glyph unicode="&#xed;" horiz-adv-x="636" d="M102 0v131h144v1118h-144v131h433v-131h-144v-1118h144v-131h-433zM256 1448l190 231h142l-209 -231h-123z" />
<glyph unicode="&#xee;" horiz-adv-x="636" d="M76 1448l190 231h103l190 -231h-123l-119 131l-118 -131h-123zM102 0v131h144v1118h-144v131h433v-131h-144v-1118h144v-131h-433z" />
<glyph unicode="&#xef;" horiz-adv-x="636" d="M80 1518v161h143v-161h-143zM102 0v131h144v1118h-144v131h433v-131h-144v-1118h144v-131h-433zM412 1518v161h143v-161h-143z" />
<glyph unicode="&#xf0;" horiz-adv-x="1519" d="M20 655v119h226v475h-144v131h643q324 0 493 -193.5t169 -494.5q0 -299 -173 -495.5t-489 -196.5h-643v131h144v524h-226zM391 127h344q252 0 387 154.5t135 408.5q0 256 -141 409.5t-381 153.5h-344v-479h387v-119h-387v-528z" />
<glyph unicode="&#xf1;" horiz-adv-x="1597" d="M102 0v131h144v1118h-144v131h265l843 -1120v989h-204v131h489v-131h-143v-1267h-109l-856 1132v-983h205v-131h-490zM539 1448q0 96 25.5 147.5t101.5 51.5q43 0 140 -30t134 -30q55 0 55 92h80q0 -96 -25.5 -147t-101.5 -51q-43 0 -140 29.5t-134 29.5q-55 0 -56 -92 h-79z" />
<glyph unicode="&#xf2;" horiz-adv-x="1536" d="M113 692q0 143 42 270.5t121.5 227.5t206.5 158.5t285 58.5t285 -58.5t206.5 -158.5t121.5 -227t42 -271q0 -301 -173 -510t-482 -209t-482 209t-173 510zM262 690q0 -244 134 -417t372 -173q160 0 277.5 84t173 215t55.5 291q0 244 -134 417t-372 173q-160 0 -277.5 -84 t-173 -215t-55.5 -291zM487 1679h142l190 -231h-123z" />
<glyph unicode="&#xf3;" horiz-adv-x="1536" d="M113 692q0 143 42 270.5t121.5 227.5t206.5 158.5t285 58.5t285 -58.5t206.5 -158.5t121.5 -227t42 -271q0 -301 -173 -510t-482 -209t-482 209t-173 510zM262 690q0 -244 134 -417t372 -173q160 0 277.5 84t173 215t55.5 291q0 244 -134 417t-372 173q-160 0 -277.5 -84 t-173 -215t-55.5 -291zM698 1448l191 231h141l-209 -231h-123z" />
<glyph unicode="&#xf4;" horiz-adv-x="1536" d="M113 692q0 143 42 270.5t121.5 227.5t206.5 158.5t285 58.5t285 -58.5t206.5 -158.5t121.5 -227t42 -271q0 -301 -173 -510t-482 -209t-482 209t-173 510zM262 690q0 -244 134 -417t372 -173q160 0 277.5 84t173 215t55.5 291q0 244 -134 417t-372 173q-160 0 -277.5 -84 t-173 -215t-55.5 -291zM520 1448l191 231h102l191 -231h-123l-119 131l-119 -131h-123z" />
<glyph unicode="&#xf5;" horiz-adv-x="1536" d="M113 692q0 143 42 270.5t121.5 227.5t206.5 158.5t285 58.5t285 -58.5t206.5 -158.5t121.5 -227t42 -271q0 -301 -173 -510t-482 -209t-482 209t-173 510zM262 690q0 -244 134 -417t372 -173q160 0 277.5 84t173 215t55.5 291q0 244 -134 417t-372 173q-160 0 -277.5 -84 t-173 -215t-55.5 -291zM504 1448q0 96 25.5 147.5t101.5 51.5q43 0 140 -30t134 -30q55 0 56 92h79q0 -96 -25.5 -147t-101.5 -51q-43 0 -140 29.5t-134 29.5q-55 0 -55 -92h-80z" />
<glyph unicode="&#xf6;" horiz-adv-x="1536" d="M113 692q0 143 42 270.5t121.5 227.5t206.5 158.5t285 58.5t285 -58.5t206.5 -158.5t121.5 -227t42 -271q0 -301 -173 -510t-482 -209t-482 209t-173 510zM262 690q0 -244 134 -417t372 -173q160 0 277.5 84t173 215t55.5 291q0 244 -134 417t-372 173q-160 0 -277.5 -84 t-173 -215t-55.5 -291zM528 1518v161h144v-161h-144zM860 1518v161h144v-161h-144z" />
<glyph unicode="&#xf7;" d="M41 461v112h942v-112h-942zM412 209q0 43 27.5 71.5t70.5 28.5t71.5 -28.5t28.5 -71.5t-28.5 -70.5t-71.5 -27.5t-70.5 27.5t-27.5 70.5zM412 823q0 43 27.5 72t70.5 29t71.5 -29t28.5 -72t-28.5 -70.5t-71.5 -27.5t-70.5 27.5t-27.5 70.5z" />
<glyph unicode="&#xf8;" horiz-adv-x="1536" d="M113 -115l196 271q-197 203 -196 536q0 143 42 270.5t121.5 227.5t206.5 158.5t285 58.5q219 0 375 -111l145 199h135l-198 -270q199 -203 198 -533q0 -301 -173 -510t-482 -209q-219 0 -375 111l-145 -199h-135zM262 690q0 -250 133 -418l666 912q-123 96 -293 96 q-160 0 -277.5 -84t-173 -215t-55.5 -291zM473 195q123 -94 295 -95q160 0 277.5 84t173 215t55.5 291q0 252 -135 416z" />
<glyph unicode="&#xf9;" horiz-adv-x="1595" d="M102 1249v131h433v-131h-144v-786q0 -174 116 -268.5t290 -94.5q184 0 297.5 94.5t113.5 266.5v788h-143v131h428v-131h-143v-784q0 -227 -155 -359.5t-398 -132.5q-236 0 -393.5 133.5t-157.5 358.5v784h-144zM551 1679h141l191 -231h-123z" />
<glyph unicode="&#xfa;" horiz-adv-x="1595" d="M102 1249v131h433v-131h-144v-786q0 -174 116 -268.5t290 -94.5q184 0 297.5 94.5t113.5 266.5v788h-143v131h428v-131h-143v-784q0 -227 -155 -359.5t-398 -132.5q-236 0 -393.5 133.5t-157.5 358.5v784h-144zM715 1448l190 231h142l-209 -231h-123z" />
<glyph unicode="&#xfb;" horiz-adv-x="1595" d="M102 1249v131h433v-131h-144v-786q0 -174 116 -268.5t290 -94.5q184 0 297.5 94.5t113.5 266.5v788h-143v131h428v-131h-143v-784q0 -227 -155 -359.5t-398 -132.5q-236 0 -393.5 133.5t-157.5 358.5v784h-144zM549 1448l190 231h103l190 -231h-123l-118 131l-119 -131 h-123z" />
<glyph unicode="&#xfc;" horiz-adv-x="1595" d="M102 1249v131h433v-131h-144v-786q0 -174 116 -268.5t290 -94.5q184 0 297.5 94.5t113.5 266.5v788h-143v131h428v-131h-143v-784q0 -227 -155 -359.5t-398 -132.5q-236 0 -393.5 133.5t-157.5 358.5v784h-144zM549 1518v161h143v-161h-143zM881 1518v161h143v-161h-143z " />
<glyph unicode="&#xfd;" horiz-adv-x="1314" d="M63 1249v131h404v-131h-135l327 -463l326 463h-131v131h406v-131h-101l-432 -604v-514h143v-131h-432v131h144v514l-428 604h-91zM379 1679h141l191 -231h-123z" />
<glyph unicode="&#xfe;" horiz-adv-x="1312" d="M102 0v131h144v1118h-144v131h289v-143h342q207 0 332 -115.5t125 -310.5q0 -205 -122 -321.5t-337 -116.5h-340v-242h205v-131h-494zM391 500h334q158 0 238.5 78.5t80.5 228.5q0 137 -87 221t-230 84h-336v-612z" />
<glyph unicode="&#xff;" horiz-adv-x="1314" d="M63 1249v131h404v-131h-135l327 -463l326 463h-131v131h406v-131h-101l-432 -604v-514h143v-131h-432v131h144v514l-428 604h-91zM424 1518v161h143v-161h-143zM756 1518v161h143v-161h-143z" />
<glyph unicode="&#x152;" horiz-adv-x="2123" d="M113 688q0 301 173 496.5t488 195.5h1135v-379h-135v248h-541v-471h274v146h135v-439h-135v166h-274v-520h582v289h135v-420h-1176q-164 0 -293 54.5t-207.5 150.5t-119.5 218t-41 265zM262 690q0 -256 141.5 -409.5t380.5 -153.5h324v1126h-324q-252 0 -387 -154.5 t-135 -408.5z" />
<glyph unicode="&#x153;" horiz-adv-x="2123" d="M113 688q0 301 173 496.5t488 195.5h1135v-379h-135v248h-541v-471h274v146h135v-439h-135v166h-274v-520h582v289h135v-420h-1176q-164 0 -293 54.5t-207.5 150.5t-119.5 218t-41 265zM262 690q0 -256 141.5 -409.5t380.5 -153.5h324v1126h-324q-252 0 -387 -154.5 t-135 -408.5z" />
<glyph unicode="&#x178;" horiz-adv-x="1314" d="M63 1249v131h404v-131h-135l327 -463l326 463h-131v131h406v-131h-101l-432 -604v-514h143v-131h-432v131h144v514l-428 604h-91zM424 1518v161h143v-161h-143zM756 1518v161h143v-161h-143z" />
<glyph unicode="&#x2c6;" d="M223 1018l223 362h132l223 -362h-109l-180 262l-180 -262h-109z" />
<glyph unicode="&#x302;" d="M223 1018l223 362h132l223 -362h-109l-180 262l-180 -262h-109z" />
<glyph unicode="&#x2dc;" d="M190 1075q0 238 164 238q49 0 156.5 -33t148.5 -33q84 0 84 133h91q0 -238 -164 -237q-49 0 -156.5 32.5t-148.5 32.5q-84 0 -84 -133h-91z" />
<glyph unicode="&#x303;" d="M190 1075q0 238 164 238q49 0 156.5 -33t148.5 -33q84 0 84 133h91q0 -238 -164 -237q-49 0 -156.5 32.5t-148.5 32.5q-84 0 -84 -133h-91z" />
<glyph unicode="&#x2013;" d="M41 633v112h942v-112h-942z" />
<glyph unicode="&#x2014;" horiz-adv-x="2048" d="M41 633v112h1966v-112h-1966z" />
<glyph unicode="&#x2018;" horiz-adv-x="512" d="M150 879l141 501h102l-112 -501h-131z" />
<glyph unicode="&#x2019;" horiz-adv-x="512" d="M119 879l112 501h131l-141 -501h-102z" />
<glyph unicode="&#x201a;" horiz-adv-x="512" d="M119 -313l112 501h131l-141 -501h-102z" />
<glyph unicode="&#x201c;" horiz-adv-x="839" d="M150 879l141 501h102l-112 -501h-131zM477 879l141 501h103l-113 -501h-131z" />
<glyph unicode="&#x201d;" horiz-adv-x="839" d="M119 879l112 501h131l-141 -501h-102zM446 879l113 501h131l-141 -501h-103z" />
<glyph unicode="&#x201e;" horiz-adv-x="839" d="M119 -313l112 501h131l-141 -501h-102zM446 -313l113 501h131l-141 -501h-103z" />
<glyph unicode="&#x2022;" horiz-adv-x="700" d="M197 504v377h311v-377h-311z" />
<glyph unicode="&#x2026;" horiz-adv-x="2048" d="M276 0v188h156v-188h-156zM948 0v188h156v-188h-156zM1622 0v188h156v-188h-156z" />
<glyph unicode="&#x2039;" horiz-adv-x="512" d="M57 690l281 338h117l-248 -338l248 -338h-117z" />
<glyph unicode="&#x203a;" horiz-adv-x="512" d="M57 352l248 338l-248 338h117l281 -338l-281 -338h-117z" />
<glyph unicode="&#x20ac;" horiz-adv-x="1251" d="M123 508v104h164q-2 29 -2 90q0 51 2 76h-164v105h172q29 246 144.5 385t324.5 139q127 0 215 -64v64h129v-358h-129v135q-78 102 -211 102q-152 0 -232.5 -101.5t-103.5 -301.5h445v-105h-451q-2 -25 -2 -76q0 -61 2 -90h451v-104h-443q51 -412 334 -412q143 0 221 111 v125h129v-359h-129v70q-88 -70 -225 -70q-410 0 -469 535h-172z" />
<glyph unicode="&#x2122;" d="M20 -205v533h697v-287h-185v102h-327v-163h799v-185h-984zM20 389v553h185v-184h799v-185h-799v-184h-185zM20 1004v430h185v-246h307v205h184v-205h308v-184h-984z" />
<glyph unicode="&#xe000;" horiz-adv-x="1380" d="M0 1380h1380v-1380h-1380v1380z" />
<glyph unicode="&#xfb01;" horiz-adv-x="1888" d="M102 0v131h144v1118h-144v131h1006v-399h-135v268h-582v-528h275v166h135v-463h-135v166h-275v-459h205v-131h-494zM1354 0v131h143v1118h-143v131h432v-131h-144v-1118h144v-131h-432z" />
<glyph unicode="&#xfb02;" horiz-adv-x="2492" d="M102 0v131h144v1118h-144v131h1006v-399h-135v268h-582v-528h275v166h135v-463h-135v166h-275v-459h205v-131h-494zM1354 0v131h143v1118h-143v131h473v-131h-185v-1118h592v281h136v-412h-1016z" />
<glyph unicode="&#xfb03;" horiz-adv-x="3139" d="M102 0v131h144v1118h-144v131h1006v-399h-135v268h-582v-528h275v166h135v-463h-135v166h-275v-459h205v-131h-494zM1354 0v131h143v1118h-143v131h1005v-399h-135v268h-582v-528h275v166h135v-463h-135v166h-275v-459h205v-131h-493zM2605 0v131h143v1118h-143v131h432 v-131h-143v-1118h143v-131h-432z" />
<glyph unicode="&#xfb04;" horiz-adv-x="3743" d="M102 0v131h144v1118h-144v131h1006v-399h-135v268h-582v-528h275v166h135v-463h-135v166h-275v-459h205v-131h-494zM1354 0v131h143v1118h-143v131h1005v-399h-135v268h-582v-528h275v166h135v-463h-135v166h-275v-459h205v-131h-493zM2605 0v131h143v1118h-143v131h473 v-131h-184v-1118h592v281h135v-412h-1016z" />
</font>
</defs>
</svg>
